<?xml version="1.0" encoding="utf-8"?>
<!-- Generator: Adobe Illustrator 27.5.0, SVG Export Plug-In . SVG Version: 6.00 Build 0)  -->
<svg version="1.1" xmlns="http://www.w3.org/2000/svg" xmlns:xlink="http://www.w3.org/1999/xlink" x="0px" y="0px"
	 viewBox="0 0 1122 1122" style="enable-background:new 0 0 1122 1122;" xml:space="preserve">

<g id="Object">
	<g>
		<g>
			<path style="fill:#513536;" d="M604.824,295.776c-30.593,1.595-60.308,9.56-88.321,23.672
				c-45.915,23.129-112.029,64.168-166.252,128.325c-65.143,77.078-95.553,167.479-90.385,268.689
				c4.629,90.656,47.476,152.995,127.351,185.286c34.595,13.986,74.98,21.835,120.034,23.331
				c43.43,1.447,89.053-3.039,135.616-13.319c92.259-20.368,176.1-60.944,230.024-111.322
				c34.373-32.112,55.64-78.592,61.503-134.415c5.761-54.85-4.088-115.706-27.733-171.358
				c-25.568-60.179-64.984-110.491-113.987-145.499C737.976,310.09,674.77,292.118,604.824,295.776L604.824,295.776z"/>
			<g>
				<g>
					
						<rect x="614.29" y="448.262" transform="matrix(0.5173 -0.8558 0.8558 0.5173 -44.5072 822.699)" style="fill:#FFFFFF;" width="185.551" height="5.085"/>
				</g>
				<path style="fill:#A86B76;" d="M875.814,231.367c-4.801-7.89-12.076-12.532-19.582-17.428
					c-6.952-4.534-13.902-9.895-21.556-13.211c-10.62-4.602-22.669-5.289-33.796-2.134c-17.196,4.876-29.152,17.597-35.45,33.935
					c-4.896,12.702-9.792,25.404-14.688,38.105c-11.717,30.397-23.434,60.794-35.151,91.192c-0.026,0.066-0.028,0.121-0.048,0.184
					c-0.419,0.68-0.341,1.407,0.638,2.017c20.002,12.454,40.003,24.907,60.005,37.361c2.029,1.263,5.067,0.018,6.362-1.705
					c16.445-21.878,32.889-43.756,49.334-65.634c10.355-13.776,20.71-27.552,31.064-41.328c6.255-8.322,13.943-16.732,17.123-26.804
					C883.696,254.42,882.07,241.649,875.814,231.367z"/>
				<g>
					<path style="fill:#A86B76;" d="M648.453,576.453c0,0,39.744-49.57,8.832-56.035c0,0-13.248-6.466-35.328,40.949
						L648.453,576.453z"/>
				</g>
			</g>
			<g>
				<defs>
					<path id="SVGID_1_" d="M604.824,295.776c-30.593,1.595-60.308,9.56-88.321,23.672
						c-45.915,23.129-112.029,64.168-166.252,128.325c-65.143,77.078-95.553,167.479-90.385,268.689
						c4.629,90.656,47.476,152.995,127.351,185.286c34.595,13.986,74.98,21.835,120.034,23.331
						c43.43,1.447,89.053-3.039,135.616-13.319c92.259-20.368,176.1-60.944,230.024-111.322
						c34.373-32.112,55.64-78.592,61.503-134.415c5.761-54.85-4.088-115.706-27.733-171.358
						c-25.568-60.179-64.984-110.491-113.987-145.499C737.976,310.09,674.77,292.118,604.824,295.776L604.824,295.776z"/>
				</defs>
				<clipPath id="SVGID_00000021820632566695583550000013646072805370165395_">
					<use xlink:href="#SVGID_1_"  style="overflow:visible;"/>
				</clipPath>
				<g style="clip-path:url(#SVGID_00000021820632566695583550000013646072805370165395_);">
					<g>
						<path style="fill:#CBA390;" d="M403.889,672.672h-9.257c-23.622,0-42.949,19.327-42.949,42.95v174.976
							c0,23.622,19.327,42.95,42.949,42.95h9.257c23.622,0,42.949-19.327,42.949-42.95V715.621
							C446.838,691.999,427.511,672.672,403.889,672.672z"/>
					</g>
					<g>
						<path style="fill:#CBA390;" d="M512.943,561.479h-9.257c-23.622,0-42.95,19.327-42.95,42.949v320.356
							c0,23.622,19.327,42.949,42.95,42.949h9.257c23.622,0,42.949-19.327,42.949-42.949V604.428
							C555.893,580.806,536.565,561.479,512.943,561.479z"/>
					</g>
					<g>
						<path style="fill:#CBA390;" d="M621.997,636.32h-9.256c-23.622,0-42.95,19.327-42.95,42.95v245.514
							c0,23.622,19.327,42.949,42.95,42.949h9.256c23.622,0,42.949-19.327,42.949-42.949V679.27
							C664.947,655.648,645.62,636.32,621.997,636.32z"/>
					</g>
					<g>
						<path style="fill:#CBA390;" d="M727.323,723.992h-11.42c-20.052,0-36.457,16.406-36.457,36.457v130.307
							c0,20.051,16.406,36.457,36.457,36.457h11.42c20.051,0,36.457-16.406,36.457-36.457V760.449
							C763.78,740.397,747.374,723.992,727.323,723.992z"/>
					</g>
					<g>
						<path style="fill:#FFFFFF;" d="M424.113,635.251H372.27l-5.432,95.968c-0.534,9.427,6.967,17.363,16.408,17.363h29.121
							c10.955,0,19.596-9.318,18.772-20.242L424.113,635.251z"/>
					</g>
					<g>
						<path style="fill:#FFFFFF;" d="M532.765,520.737H487.86l-8.794,98.487c-1.02,11.422,7.978,21.259,19.445,21.259h21.615
							c11.451,0,20.497-9.715,19.681-21.137L532.765,520.737z"/>
					</g>
					<g>
						<path style="fill:#A86B76;" d="M641.425,605.315h-47.043l-7.095,93.123c-0.787,10.326,7.38,19.138,17.736,19.138h26.851
							c9.769,0,17.472-8.313,16.73-18.053L641.425,605.315z"/>
					</g>
					<g>
						<path style="fill:#A86B76;" d="M739.788,702.722h-38.49l-4.784,58.202c-0.878,10.688,7.559,19.847,18.283,19.847h18.159
							c8.211,0,14.603-7.131,13.709-15.293L739.788,702.722z"/>
					</g>
				</g>
			</g>
		</g>
		<g>
			<path style="fill:#A86B76;" d="M204.606,512.687l4.749-12.311l60.037,23.16l-5.335,13.829l-27.521-10.52l23.098,21.987
				l-3.871,10.035l-31.575,0.993l27.151,10.474l-5.302,13.745L186,560.919l4.781-12.396l47.91-2.151L204.606,512.687z"/>
			<path style="fill:#A86B76;" d="M309.198,459.111l-14.221-2.588l-15.769,23.812l7.934,12.082l-9.382,14.167l-37.035-60.623
				l7.385-11.152l70.319,10.361L309.198,459.111z M271.628,468.702l9.681-14.619l-21.795-3.918L271.628,468.702z"/>
			<path style="fill:#A86B76;" d="M313.684,356.277l11.108-11.512l46.309,44.681l-8.723,9.041l-46.546-4.344l26.276,25.353
				l-10.982,11.382l-46.309-44.681l8.597-8.911l46.416,4.219L313.684,356.277z"/>
			<path style="fill:#A86B76;" d="M392.504,371.577l-40.545-49.97l13.194-10.706l40.545,49.97L392.504,371.577z"/>
			<path style="fill:#A86B76;" d="M437.635,333.398c-5.661,0.419-10.98-0.733-15.958-3.459c-4.978-2.724-9.259-6.837-12.847-12.339
				c-3.554-5.451-5.566-10.99-6.034-16.619c-0.47-5.628,0.63-10.947,3.296-15.96c2.667-5.011,6.801-9.343,12.403-12.996
				c3.532-2.303,7.298-4.003,11.295-5.099c3.996-1.095,7.597-1.393,10.801-0.892l2.25,12.883
				c-6.464-0.317-12.043,1.055-16.737,4.116c-4.341,2.831-6.776,6.379-7.303,10.642c-0.528,4.265,0.968,9.097,4.49,14.497
				c3.554,5.451,7.397,8.808,11.528,10.07c4.131,1.263,8.367,0.479,12.708-2.352c4.694-3.06,8.2-7.612,10.518-13.655l10.881,7.255
				c-0.835,3.134-2.56,6.308-5.174,9.524c-2.615,3.215-5.689,5.975-9.221,8.278C448.928,330.944,443.297,332.98,437.635,333.398z"/>
			<path style="fill:#A86B76;" d="M497.226,293.445c-6.336-2.339-11.378-7.686-15.131-16.041l-15.256-33.967l15.087-6.777
				l15.516,34.544c1.901,4.233,4.306,7.049,7.214,8.451c2.909,1.402,6.121,1.313,9.639-0.267c3.462-1.556,5.615-3.893,6.46-7.014
				c0.844-3.119,0.328-6.768-1.548-10.946l-15.516-34.544l15.252-6.851l15.256,33.967c3.703,8.244,4.296,15.558,1.779,21.939
				c-2.518,6.382-7.98,11.461-16.39,15.238C511.016,295.029,503.561,295.786,497.226,293.445z"/>
			<path style="fill:#A86B76;" d="M624.756,267.514l-17.899,1.761l-10.372-20.503c-1.196-2.303-3.562-3.282-7.099-2.934
				l-6.116,0.602l2.45,24.915l-16.64,1.637l-6.299-64.04l29.771-2.928c7.735-0.761,13.715,0.331,17.94,3.275
				c4.225,2.945,6.642,7.506,7.249,13.682c0.425,4.317-0.363,8.163-2.362,11.538c-1.999,3.375-5.033,5.93-9.1,7.661
				c1.835,0.183,3.536,0.864,5.105,2.041c1.569,1.178,2.881,2.835,3.94,4.97L624.756,267.514z M600.126,230.387
				c1.51-1.268,2.15-3.072,1.92-5.411c-0.241-2.458-1.211-4.149-2.905-5.072c-1.696-0.923-4.373-1.205-8.03-0.845l-10.613,1.044
				l1.354,13.762l10.613-1.044C596.063,232.467,598.617,231.657,600.126,230.387z"/>
			<path style="fill:#A86B76;" d="M647.956,268.907l8.569-63.777l45.504,6.114l-1.733,12.899l-29.111-3.912l-1.613,12.003
				l27.231,3.659l-1.733,12.898l-27.23-3.659l-1.757,13.078l29.111,3.911l-1.733,12.899L647.956,268.907z"/>
		</g>
	</g>
</g>
</svg>
