<?xml version="1.0" encoding="utf-8"?>
<!-- Generator: Adobe Illustrator 27.5.0, SVG Export Plug-In . SVG Version: 6.00 Build 0)  -->
<svg version="1.1" xmlns="http://www.w3.org/2000/svg" xmlns:xlink="http://www.w3.org/1999/xlink" x="0px" y="0px"
	 viewBox="0 0 750 500" style="enable-background:new 0 0 750 500;" xml:space="preserve">
<g id="Background_1">
	<g>
		<g>
			<defs>
				<rect id="SVGID_00000008137467345168662350000016870857244994438026_" x="-539" width="500" height="500"/>
			</defs>
			<clipPath id="SVGID_00000035528269797045441070000000816997138553835944_">
				<use xlink:href="#SVGID_00000008137467345168662350000016870857244994438026_"  style="overflow:visible;"/>
			</clipPath>
			<g style="clip-path:url(#SVGID_00000035528269797045441070000000816997138553835944_);">
				<g>
					<rect x="-664" style="fill:#EFF1F9;" width="750" height="500"/>
				</g>
				<g>
					
						<rect x="-84.711" y="29.289" transform="matrix(0.7071 -0.7071 0.7071 0.7071 -74.8112 19.3898)" style="fill:#FFFFFF;" width="141.421" height="141.421"/>
				</g>
				<g>
					<g>
						<rect x="36" y="100" style="fill:#343E73;" width="50" height="50"/>
					</g>
					<rect x="-14" y="50" style="fill:#767F99;" width="50" height="50"/>
					<rect x="-14" y="150" style="fill:#767F99;" width="50" height="50"/>
					<g>
						<rect x="-14" y="350" style="fill:#343E73;" width="50" height="50"/>
					</g>
				</g>
				<path style="fill:#FFFFFF;" d="M31.5,54.5v41h-41v-41H31.5 M32,54h-42v42h42V54L32,54z"/>
				<path style="fill:#FFFFFF;" d="M31.5,154.5v41h-41v-41H31.5 M32,154h-42v42h42V154L32,154z"/>
				<path style="fill:#4A8CDD;" d="M-14,350.25c-0.065,0-0.128-0.024-0.177-0.073c-0.098-0.098-0.098-0.256,0-0.354l100-100
					c0.098-0.098,0.256-0.098,0.354,0c0.098,0.098,0.098,0.256,0,0.354l-100,100C-13.872,350.226-13.936,350.25-14,350.25z"/>
				<path style="fill:#4A8CDD;" d="M-14,150.25c-0.065,0-0.128-0.024-0.177-0.073c-0.098-0.098-0.098-0.256,0-0.354l50-50
					c0.098-0.098,0.256-0.098,0.354,0c0.098,0.098,0.098,0.256,0,0.354l-50,50C-13.872,150.226-13.936,150.25-14,150.25z"/>
			</g>
		</g>
	</g>
</g>
<g id="Background_2">
	<g>
		<rect style="fill:#EFF1F9;" width="750" height="500"/>
		
			<rect x="129.289" y="129.289" transform="matrix(0.7071 0.7071 -0.7071 0.7071 200 -82.8427)" style="fill:#FFFFFF;" width="141.421" height="141.421"/>
		
			<rect x="429.289" y="229.289" transform="matrix(0.7071 0.7071 -0.7071 0.7071 358.5786 -265.6854)" style="fill:#FFFFFF;" width="141.421" height="141.421"/>
		
			<rect x="579.289" y="29.289" transform="matrix(0.7071 0.7071 -0.7071 0.7071 261.0913 -430.3301)" style="fill:#FFFFFF;" width="141.421" height="141.421"/>
		
			<rect x="114.645" y="364.645" transform="matrix(0.7071 0.7071 -0.7071 0.7071 326.7767 11.0913)" style="fill:#FFFFFF;" width="70.711" height="70.711"/>
		<g>
			<rect style="fill:#767F99;" width="100" height="100"/>
			<rect x="200" y="100" style="fill:#767F99;" width="100" height="100"/>
			<rect x="350" y="250" style="fill:#767F99;" width="100" height="100"/>
			<rect x="400" style="fill:#4A8CDD;" width="100" height="100"/>
			<rect x="100" y="200" style="fill:#4A8CDD;" width="100" height="100"/>
			<rect x="100" y="100" style="fill:#4A8CDD;" width="50" height="50"/>
			<rect x="150" y="50" style="fill:#767F99;" width="50" height="50"/>
			<rect x="600" y="100" style="fill:#767F99;" width="50" height="50"/>
			<rect x="700" y="100" style="fill:#343E73;" width="50" height="50"/>
			<rect x="650" y="50" style="fill:#767F99;" width="50" height="50"/>
			<rect x="650" y="150" style="fill:#767F99;" width="50" height="50"/>
			<rect x="600" style="fill:#343E73;" width="50" height="50"/>
			<rect x="300" y="200" style="fill:#343E73;" width="50" height="50"/>
			<rect x="350" y="150" style="fill:#4A8CDD;" width="50" height="50"/>
			<rect x="400" y="200" style="fill:#767F99;" width="50" height="50"/>
			<rect x="450" y="150" style="fill:#767F99;" width="50" height="50"/>
			<rect x="500" y="200" style="fill:#343E73;" width="50" height="50"/>
			<rect x="650" y="350" style="fill:#343E73;" width="50" height="50"/>
			<rect x="550" y="150" style="fill:#4A8CDD;" width="50" height="50"/>
			<rect x="600" y="300" style="fill:#767F99;" width="50" height="50"/>
			<rect x="400" y="100" style="fill:#767F99;" width="50" height="50"/>
			<rect y="200" style="fill:#767F99;" width="50" height="50"/>
			<rect x="50" y="150" style="fill:#343E73;" width="50" height="50"/>
			<rect x="550" y="50" style="fill:#767F99;" width="50" height="50"/>
			<rect y="100" style="fill:#767F99;" width="50" height="50"/>
			<rect x="200" style="fill:#767F99;" width="50" height="50"/>
			<rect x="250" y="250" style="fill:#767F99;" width="50" height="50"/>
			<rect x="100" y="300" style="fill:#343E73;" width="50" height="50"/>
			<rect x="50" y="350" style="fill:#4A8CDD;" width="50" height="50"/>
			<rect x="150" y="350" style="fill:#767F99;" width="50" height="50"/>
			<rect x="150" y="450.104" style="fill:#343E73;" width="50" height="50"/>
			<rect x="50" y="250" style="fill:#767F99;" width="50" height="50"/>
			<rect x="200" y="300" style="fill:#4A8CDD;" width="50" height="50"/>
			<rect x="250" y="350" style="fill:#4A8CDD;" width="50" height="50"/>
			<rect x="350" y="350" style="fill:#767F99;" width="50" height="50"/>
			<rect x="399.786" y="400" style="fill:#767F99;" width="50" height="50"/>
			<rect x="450" y="350" style="fill:#4A8CDD;" width="50" height="50"/>
			<rect x="550" y="400" style="fill:#767F99;" width="50" height="50"/>
			<rect x="200" y="400" style="fill:#767F99;" width="50" height="50"/>
			<rect x="250" y="50" style="fill:#767F99;" width="50" height="50"/>
			<rect x="300" style="fill:#343E73;" width="50" height="50"/>
			<rect x="500" style="fill:#767F99;" width="50" height="50"/>
			<rect x="500" y="100" style="fill:#343E73;" width="50" height="50"/>
			<rect x="350" y="50" style="fill:#767F99;" width="50" height="50"/>
			<rect x="300" y="100" style="fill:#767F99;" width="50" height="50"/>
			<rect x="100" style="fill:#343E73;" width="50" height="50"/>
		</g>
		<path style="fill:#FFFFFF;" d="M445.5,254.5v91h-91v-91H445.5 M446,254h-92v92h92V254L446,254z"/>
		<path style="fill:#FFFFFF;" d="M495.5,4.5v91h-91v-91H495.5 M496,4h-92v92h92V4L496,4z"/>
		<path style="fill:#FFFFFF;" d="M145.5,104.5v41h-41v-41H145.5 M146,104h-42v42h42V104L146,104z"/>
		<path style="fill:#FFFFFF;" d="M695.5,54.5v41h-41v-41H695.5 M696,54h-42v42h42V54L696,54z"/>
		<path style="fill:#FFFFFF;" d="M695.5,154.5v41h-41v-41H695.5 M696,154h-42v42h42V154L696,154z"/>
		<path style="fill:#FFFFFF;" d="M645.5,4.5v41h-41v-41H645.5 M646,4h-42v42h42V4L646,4z"/>
		<path style="fill:#FFFFFF;" d="M545.5,204.5v41h-41v-41H545.5 M546,204h-42v42h42V204L546,204z"/>
		<path style="fill:#FFFFFF;" d="M645.5,304.5v41h-41v-41H645.5 M646,304h-42v42h42V304L646,304z"/>
		<path style="fill:#FFFFFF;" d="M45.5,204.5v41h-41v-41H45.5 M46,204H4v42h42V204L46,204z"/>
		<path style="fill:#FFFFFF;" d="M45.5,104.5v41h-41v-41H45.5 M46,104H4v42h42V104L46,104z"/>
		<path style="fill:#FFFFFF;" d="M295.5,254.5v41h-41v-41H295.5 M296,254h-42v42h42V254L296,254z"/>
		<path style="fill:#FFFFFF;" d="M95.5,354.5v41h-41v-41H95.5 M96,354H54v42h42V354L96,354z"/>
		<path style="fill:#FFFFFF;" d="M195.5,354.5v41h-41v-41H195.5 M196,354h-42v42h42V354L196,354z"/>
		<path style="fill:#FFFFFF;" d="M295.5,354.5v41h-41v-41H295.5 M296,354h-42v42h42V354L296,354z"/>
		<path style="fill:#FFFFFF;" d="M445.286,404.5v41h-41v-41H445.286 M445.786,404h-42v42h42V404L445.786,404z"/>
		<path style="fill:#FFFFFF;" d="M345.5,4.5v41h-41v-41H345.5 M346,4h-42v42h42V4L346,4z"/>
		<path style="fill:#FFFFFF;" d="M345.5,104.5v41h-41v-41H345.5 M346,104h-42v42h42V104L346,104z"/>
		<path style="fill:#FFFFFF;" d="M145.5,4.5v41h-41v-41H145.5 M146,4h-42v42h42V4L146,4z"/>
		<path style="fill:#343E73;" d="M250,350.25c-0.065,0-0.128-0.024-0.177-0.073c-0.098-0.098-0.098-0.256,0-0.354l100-100
			c0.098-0.098,0.256-0.098,0.354,0c0.098,0.098,0.098,0.256,0,0.354l-100,100C250.128,350.226,250.064,350.25,250,350.25z"/>
		<path style="fill:#4A8CDD;" d="M650,350.25c-0.065,0-0.128-0.024-0.177-0.073c-0.098-0.098-0.098-0.256,0-0.354l100-100
			c0.098-0.098,0.256-0.098,0.354,0c0.098,0.098,0.098,0.256,0,0.354l-100,100C650.128,350.226,650.065,350.25,650,350.25z"/>
		
			<rect x="179.289" y="149.75" transform="matrix(0.7071 -0.7071 0.7071 0.7071 -32.8427 220.7107)" style="fill:#FFFFFF;" width="141.421" height="0.5"/>
		
			<rect x="439.645" y="174.75" transform="matrix(0.7071 -0.7071 0.7071 0.7071 15.3806 387.132)" style="fill:#FFFFFF;" width="70.711" height="0.5"/>
		<path style="fill:#343E73;" d="M500,350.25c-0.065,0-0.128-0.024-0.177-0.073c-0.098-0.098-0.098-0.256,0-0.354l150-150
			c0.098-0.098,0.256-0.098,0.354,0c0.098,0.098,0.098,0.256,0,0.354l-150,150C500.128,350.226,500.065,350.25,500,350.25z"/>
		<path style="fill:#767F99;" d="M550,500.25c-0.065,0-0.128-0.024-0.177-0.073c-0.098-0.098-0.098-0.256,0-0.354l50-50
			c0.098-0.098,0.256-0.098,0.354,0c0.098,0.098,0.098,0.256,0,0.354l-50,50C550.128,500.226,550.065,500.25,550,500.25z"/>
		<path style="fill:#767F99;" d="M200,300.25c-0.065,0-0.128-0.024-0.177-0.073c-0.098-0.098-0.098-0.256,0-0.354l50-50
			c0.098-0.098,0.256-0.098,0.354,0c0.098,0.098,0.098,0.256,0,0.354l-50,50C200.128,300.226,200.064,300.25,200,300.25z"/>
		<path style="fill:#343E73;" d="M50,500.25c-0.065,0-0.128-0.024-0.177-0.073c-0.098-0.098-0.098-0.256,0-0.354l100-100
			c0.098-0.098,0.256-0.098,0.354,0c0.098,0.098,0.098,0.256,0,0.354l-100,100C50.128,500.226,50.064,500.25,50,500.25z"/>
		<path style="fill:#4A8CDD;" d="M650,150.25c-0.065,0-0.128-0.024-0.177-0.073c-0.098-0.098-0.098-0.256,0-0.354l50-50
			c0.098-0.098,0.256-0.098,0.354,0c0.098,0.098,0.098,0.256,0,0.354l-50,50C650.128,150.226,650.065,150.25,650,150.25z"/>
		<path style="fill:#4A8CDD;" d="M0,350.25c-0.065,0-0.128-0.024-0.177-0.073c-0.098-0.098-0.098-0.256,0-0.354l50-50
			c0.098-0.098,0.256-0.098,0.354,0c0.098,0.098,0.098,0.256,0,0.354l-50,50C0.128,350.226,0.064,350.25,0,350.25z"/>
		<path style="fill:#343E73;" d="M550,50.25c-0.065,0-0.128-0.024-0.177-0.073c-0.098-0.098-0.098-0.256,0-0.354l50-50
			c0.098-0.098,0.256-0.098,0.354,0c0.098,0.098,0.098,0.256,0,0.354l-50,50C550.128,50.226,550.065,50.25,550,50.25z"/>
		<path style="fill:#343E73;" d="M100,100.25c-0.065,0-0.128-0.024-0.177-0.073c-0.098-0.098-0.098-0.256,0-0.354l50-50
			c0.098-0.098,0.256-0.098,0.354,0c0.098,0.098,0.098,0.256,0,0.354l-50,50C100.128,100.226,100.064,100.25,100,100.25z"/>
	</g>
</g>

</svg>
